<svg xmlns="http://www.w3.org/2000/svg" viewBox="0 0 330 330">
    <path d="M194.8008 164.7695l128.211-128.2148c8.3437-8.3399 8.3437-21.8242 0-30.164-8.34-8.34-21.8243-8.34-30.1641 0L164.6328 134.6054 36.4218 6.3906c-8.3437-8.3398-21.8241-8.3398-30.164 0-8.3437 8.3399-8.3437 21.8242 0 30.164l128.211 128.215L6.2577 292.9843c-8.3437 8.3398-8.3437 21.8242 0 30.164 4.1563 4.1602 9.6211 6.25 15.082 6.25 5.461 0 10.922-2.0898 15.082-6.25l128.211-128.2148 128.2149 128.2148c4.1601 4.1602 9.621 6.25 15.082 6.25s10.9219-2.0898 15.082-6.25c8.3438-8.3398 8.3438-21.8242 0-30.164zm0 0"/>
</svg>