<svg xmlns="http://www.w3.org/2000/svg" viewBox="0 0 512 512">
    <title>Boilerplate</title>
    <path class="window" d="M478.9883 0H33.0117C14.8086 0 0 14.8086 0 33.0117v138.5664c0 4.1446 3.3594 7.5 7.5 7.5 4.1445 0 7.504-3.3554 7.504-7.5v-69.539h172.5429V497H33.0117c-9.9297 0-18.0078-8.082-18.0078-18.0117V215.4375c0-4.1445-3.3594-7.5-7.5039-7.5-4.1406 0-7.5 3.3555-7.5 7.5v263.5469C0 497.1875 14.8086 512 33.0117 512h445.9766C497.1914 512 512 497.1875 512 478.9844V33.0117C512 14.8086 497.1914 0 478.9883 0zm18.0078 478.9844c0 9.9336-8.0781 18.0117-18.0078 18.0117H202.5508V102.039H497v376.9453zm0-391.9492H15.0039V33.0117c0-9.9297 8.0781-18.0078 18.0078-18.0078h445.9766c9.9297 0 18.0078 8.0781 18.0078 18.0078zm0 0"/>
    <path class="ui" d="M54.7695 28.793c-12.1406 0-22.0156 9.875-22.0156 22.0156 0 12.1367 9.875 22.0117 22.0156 22.0117 12.1367 0 22.0117-9.875 22.0117-22.0117 0-12.1406-9.875-22.0156-22.0117-22.0156zm0 29.0234c-3.8672 0-7.0117-3.1445-7.0117-7.0078 0-3.8672 3.1445-7.0117 7.0117-7.0117 3.8633 0 7.0118 3.1445 7.0118 7.0117 0 3.8633-3.1485 7.0078-7.0118 7.0078zm0 0M110.8164 28.793c-12.1406 0-22.0117 9.875-22.0117 22.0156 0 12.1367 9.875 22.0117 22.0117 22.0117 12.1367 0 22.0117-9.875 22.0117-22.0117 0-12.1406-9.875-22.0156-22.0117-22.0156zm0 29.0234c-3.8672 0-7.0117-3.1445-7.0117-7.0078 0-3.8672 3.1445-7.0117 7.0117-7.0117 3.8633 0 7.0117 3.1445 7.0117 7.0117 0 3.8633-3.1484 7.0078-7.0117 7.0078zm0 0M166.8633 28.793c-12.1406 0-22.0156 9.875-22.0156 22.0156 0 12.1367 9.875 22.0117 22.0156 22.0117 12.1367 0 22.0117-9.875 22.0117-22.0117 0-12.1406-9.875-22.0156-22.0117-22.0156zm0 29.0234c-3.8672 0-7.0117-3.1445-7.0117-7.0078 0-3.8672 3.1445-7.0117 7.0117-7.0117 3.8633 0 7.0117 3.1445 7.0117 7.0117 0 3.8633-3.1445 7.0078-7.0117 7.0078zm0 0"/>
    <path class="project" d="M44.2578 136.6523h14.5117c4.1446 0 7.5-3.3554 7.5-7.5 0-4.1445-3.3554-7.5-7.5-7.5H44.2578c-4.1445 0-7.5039 3.3555-7.5039 7.5 0 4.1446 3.3594 7.5 7.504 7.5zm0 0M44.2578 174.1563h14.5117c4.1446 0 7.5-3.3555 7.5-7.5s-3.3554-7.5-7.5-7.5H44.2578c-4.1445 0-7.5039 3.3554-7.5039 7.5s3.3594 7.5 7.504 7.5zm0 0M44.2578 211.664h14.5117c4.1446 0 7.5-3.3593 7.5-7.5038 0-4.1446-3.3554-7.5-7.5-7.5H44.2578c-4.1445 0-7.5039 3.3554-7.5039 7.5 0 4.1445 3.3594 7.5039 7.504 7.5039zm0 0M44.2578 249.168h14.5117c4.1446 0 7.5-3.3594 7.5-7.504 0-4.1406-3.3554-7.5-7.5-7.5H44.2578c-4.1445 0-7.5039 3.3594-7.5039 7.5 0 4.1446 3.3594 7.504 7.504 7.504zm0 0M44.2578 286.6719h14.5117c4.1446 0 7.5-3.3594 7.5-7.5 0-4.1446-3.3554-7.504-7.5-7.504H44.2578c-4.1445 0-7.5039 3.3594-7.5039 7.504 0 4.1406 3.3594 7.5 7.504 7.5zm0 0M44.2578 324.1758h14.5117c4.1446 0 7.5-3.3555 7.5-7.5s-3.3554-7.5-7.5-7.5H44.2578c-4.1445 0-7.5039 3.3554-7.5039 7.5s3.3594 7.5 7.504 7.5zm0 0M44.2578 361.6836h14.5117c4.1446 0 7.5-3.3594 7.5-7.504 0-4.1405-3.3554-7.5-7.5-7.5H44.2578c-4.1445 0-7.5039 3.3595-7.5039 7.5 0 4.1446 3.3594 7.504 7.504 7.504zm0 0M44.2578 399.1875h14.5117c4.1446 0 7.5-3.3594 7.5-7.5 0-4.1445-3.3554-7.504-7.5-7.504H44.2578c-4.1445 0-7.5039 3.3595-7.5039 7.504 0 4.1406 3.3594 7.5 7.504 7.5zm0 0M44.2578 436.6914h14.5117c4.1446 0 7.5-3.3555 7.5-7.5s-3.3554-7.5039-7.5-7.5039H44.2578c-4.1445 0-7.5039 3.3594-7.5039 7.504 0 4.1444 3.3594 7.5 7.504 7.5zm0 0M44.2578 474.1953h14.5117c4.1446 0 7.5-3.3555 7.5-7.5s-3.3554-7.5-7.5-7.5H44.2578c-4.1445 0-7.5039 3.3555-7.5039 7.5s3.3594 7.5 7.504 7.5zm0 0M85.793 136.6523h70.5586c4.1445 0 7.5-3.3554 7.5-7.5 0-4.1445-3.3555-7.5-7.5-7.5H85.793c-4.1446 0-7.504 3.3555-7.504 7.5 0 4.1446 3.3594 7.5 7.504 7.5zm0 0M85.793 286.6719h70.5586c4.1445 0 7.5-3.3594 7.5-7.5 0-4.1446-3.3555-7.504-7.5-7.504H85.793c-4.1446 0-7.504 3.3594-7.504 7.504 0 4.1406 3.3594 7.5 7.504 7.5zm0 0M85.793 361.6836h70.5586c4.1445 0 7.5-3.3594 7.5-7.504 0-4.1405-3.3555-7.5-7.5-7.5H85.793c-4.1446 0-7.504 3.3595-7.504 7.5 0 4.1446 3.3594 7.504 7.504 7.504zm0 0M85.793 174.1563h39.5351c4.1446 0 7.5-3.3555 7.5-7.5s-3.3554-7.5-7.5-7.5H85.793c-4.1446 0-7.504 3.3554-7.504 7.5s3.3594 7.5 7.504 7.5zm0 0M85.793 211.664h39.5351c4.1446 0 7.5-3.3593 7.5-7.5038 0-4.1446-3.3554-7.5-7.5-7.5H85.793c-4.1446 0-7.504 3.3554-7.504 7.5 0 4.1445 3.3594 7.5039 7.504 7.5039zm0 0M85.793 474.1953h39.5351c4.1446 0 7.5-3.3555 7.5-7.5s-3.3554-7.5-7.5-7.5H85.793c-4.1446 0-7.504 3.3555-7.504 7.5s3.3594 7.5 7.504 7.5zm0 0M85.793 324.1758h19.7695c4.1406 0 7.5-3.3555 7.5-7.5s-3.3594-7.5-7.5-7.5H85.793c-4.1446 0-7.504 3.3554-7.504 7.5s3.3594 7.5 7.504 7.5zm0 0M85.793 249.168h58.25c4.1406 0 7.5-3.3594 7.5-7.504 0-4.1406-3.3594-7.5-7.5-7.5h-58.25c-4.1446 0-7.504 3.3594-7.504 7.5 0 4.1446 3.3594 7.504 7.504 7.504zm0 0M85.793 399.1875h58.25c4.1406 0 7.5-3.3594 7.5-7.5 0-4.1445-3.3594-7.504-7.5-7.504h-58.25c-4.1446 0-7.504 3.3595-7.504 7.504 0 4.1406 3.3594 7.5 7.504 7.5zm0 0M85.793 436.6914h58.25c4.1406 0 7.5-3.3555 7.5-7.5s-3.3594-7.5039-7.5-7.5039h-58.25c-4.1446 0-7.504 3.3594-7.504 7.504 0 4.1444 3.3594 7.5 7.504 7.5zm0 0"/>
    <path class="content" d="M258.6602 265.4375h184.8164c10.6836 0 19.371-8.6914 19.371-19.371v-105.043c0-10.6837-8.6874-19.3712-19.371-19.3712H258.6602c-10.6836 0-19.3711 8.6875-19.3711 19.3711v105.043c0 10.6797 8.6875 19.3711 19.371 19.3711zm-4.3711-124.414c0-2.4102 1.9609-4.3712 4.371-4.3712h184.8165c2.4101 0 4.3671 1.961 4.3671 4.3711v105.043c0 2.4063-1.957 4.3672-4.3671 4.3672H258.6602c-2.4102 0-4.3711-1.961-4.3711-4.3672zm0 0M246.789 292.582h118.5626c4.1445 0 7.5039-3.3593 7.5039-7.5039 0-4.1406-3.3594-7.5-7.504-7.5H246.7892c-4.1446 0-7.5 3.3594-7.5 7.5 0 4.1446 3.3554 7.504 7.5 7.504zm0 0M405.3516 277.5781c-4.1446 0-7.5 3.3594-7.5 7.5 0 4.1446 3.3554 7.504 7.5 7.504h49.996c4.1446 0 7.5-3.3594 7.5-7.504 0-4.1406-3.3554-7.5-7.5-7.5zm0 0M258.6602 447.0508h184.8164c10.6836 0 19.371-8.6875 19.371-19.3711v-105.043c0-10.6797-8.6874-19.371-19.371-19.371H258.6602c-10.6836 0-19.3711 8.6913-19.3711 19.371v34.3828c0 4.1446 3.3554 7.5 7.5 7.5 4.1406 0 7.5-3.3554 7.5-7.5v-34.3828c0-2.4101 1.9609-4.3672 4.371-4.3672h184.8165c2.4101 0 4.3671 1.957 4.3671 4.3672v105.043c0 2.4101-1.957 4.3672-4.3671 4.3672H258.6602c-2.4102 0-4.3711-1.957-4.3711-4.3672v-25.6563c0-4.1445-3.3594-7.5-7.5-7.5-4.1446 0-7.5 3.3555-7.5 7.5v25.6563c0 10.6797 8.6875 19.371 19.371 19.371zm0 0M246.789 474.1953h118.5626c4.1445 0 7.5039-3.3555 7.5039-7.5s-3.3594-7.5-7.504-7.5H246.7892c-4.1446 0-7.5 3.3555-7.5 7.5s3.3554 7.5 7.5 7.5zm0 0M455.3477 459.1953h-49.9961c-4.1446 0-7.5 3.3555-7.5 7.5s3.3554 7.5 7.5 7.5h49.996c4.1446 0 7.5-3.3555 7.5-7.5s-3.3554-7.5-7.5-7.5zm0 0"/>
</svg>
